# xmcd
#
# Track frame offsets: 
#        182
#        24080
#        45470
#        66207
#        88652
#        106840
#        134015
#        152582
#        185407
#        203955
#        221345
#        261662
#
# Disc length: 3763 seconds
#
# Revision: 29
# Processed by: cddbd v1.5.2PL0 Copyright (c) Steve Scherf et al.
# Submitted via: ExactAudioCopyFreeDBPlugin 1.0
#
DISCID=a60eb10c,a90eb30c
DTITLE=B.B. King - Blues Summit
DYEAR=1993
DGENRE=Blues
TTITLE0=Playin' With My Friends (duet with Robert Cray)
TTITLE1=Since I Met You Baby (duet with Katie Webster)
TTITLE2=I Pity The Fool (duet with Buddy Guy)
TTITLE3=You Shook Me (duet with John Lee Hooker)
TTITLE4=Something You Got (duet with Koko Taylor)
TTITLE5=There's Something On Your Mind (duet with Etta James)
TTITLE6=Little By Little (duet with Lowell Fulson)
TTITLE7=Call It Stormy Monday (duet with Albert Collins)
TTITLE8=You're The Boss (duet with Ruth Brown)
TTITLE9=We're Gonna Make It (duet with Irma Thomas)
TTITLE10=I Gotta Move Out Of This Neighborhood, Nobody Loves Me But My
TTITLE10=Mother
TTITLE11=Everybody's Had The Blues (duet with Joe Louis Walker)
EXTD=
EXTT0=
EXTT1=
EXTT2=
EXTT3=
EXTT4=
EXTT5=
EXTT6=
EXTT7=
EXTT8=
EXTT9=
EXTT10=
EXTT11=
PLAYORDER=
